<svg width="26" height="27" viewBox="0 0 26 27" fill="none" xmlns="http://www.w3.org/2000/svg">
<path fill-rule="evenodd" clip-rule="evenodd" d="M24.728 3.86757C25.5 5.38278 25.5 7.36629 25.5 11.3333V15.1567C25.5 15.5528 25.5 15.7509 25.4921 15.9183C25.3193 19.567 22.4003 22.486 18.7516 22.6587C18.5842 22.6667 18.3633 22.6667 17.9213 22.6667C17.8609 22.6667 17.8306 22.6667 17.8079 22.6668C16.3626 22.6761 14.9547 23.1273 13.7732 23.9598C13.7546 23.9729 13.7358 23.9863 13.6981 24.0133L9.99951 26.6551C8.73162 27.5607 7.06552 26.2529 7.64419 24.8062C8.0541 23.7814 7.29939 22.6667 6.19567 22.6667H5.34318C2.39222 22.6667 0 20.2744 0 17.3235V11.3333C0 7.36629 0 5.38278 0.772037 3.86757C1.45114 2.53475 2.53475 1.45114 3.86757 0.772037C5.38278 0 7.36629 0 11.3333 0H14.1667C18.1337 0 20.1172 0 21.6324 0.772037C22.9652 1.45114 24.0489 2.53475 24.728 3.86757ZM8.50033 11.3333C8.50033 12.1157 7.86606 12.75 7.08366 12.75C6.30126 12.75 5.66699 12.1157 5.66699 11.3333C5.66699 10.5509 6.30126 9.91663 7.08366 9.91663C7.86606 9.91663 8.50033 10.5509 8.50033 11.3333ZM14.167 11.3333C14.167 12.1157 13.5327 12.75 12.7503 12.75C11.9679 12.75 11.3337 12.1157 11.3337 11.3333C11.3337 10.5509 11.9679 9.91663 12.7503 9.91663C13.5327 9.91663 14.167 10.5509 14.167 11.3333ZM18.417 12.75C19.1994 12.75 19.8337 12.1157 19.8337 11.3333C19.8337 10.5509 19.1994 9.91663 18.417 9.91663C17.6346 9.91663 17.0003 10.5509 17.0003 11.3333C17.0003 12.1157 17.6346 12.75 18.417 12.75Z" fill="#AEAEB1"/>
</svg>
