<svg width="60" height="60" viewBox="0 0 60 60" fill="none" xmlns="http://www.w3.org/2000/svg">
<path d="M35.625 10.875C36.6605 10.875 37.5 11.7145 37.5 12.75C37.5 13.7855 36.6605 14.625 35.625 14.625H15C11.5482 14.625 8.75 17.4232 8.75 20.875V40.875C8.75 42.8679 9.68278 44.643 11.1356 45.7874L16.3524 39.6414C18.082 37.2631 21.6781 37.4221 23.1911 39.9437C24.9468 42.8699 29.299 42.5001 30.5358 39.3197L33.2948 32.2253C34.4855 29.1634 38.6897 28.8392 40.3358 31.6824L49.0617 45.6254C50.4011 44.4791 51.25 42.7762 51.25 40.875V25.25C51.25 24.2145 52.0895 23.375 53.125 23.375C54.1605 23.375 55 24.2145 55 25.25V40.875C55 44.1134 53.4606 46.9924 51.0737 48.8199C49.813 49.785 48.316 50.457 46.6844 50.7337C46.3015 50.7987 45.9111 50.8419 45.5146 50.862C45.3442 50.8706 45.1727 50.875 45.0002 50.875H15.0002C14.8276 50.875 14.6558 50.8706 14.4854 50.862C9.2017 50.5942 5 46.2253 5 40.875V20.875C5 15.3522 9.47715 10.875 15 10.875H35.625Z" fill="#656565"/>
<path d="M22.5002 22.125C22.5002 24.1961 20.8213 25.875 18.7502 25.875C16.6791 25.875 15.0002 24.1961 15.0002 22.125C15.0002 20.0539 16.6791 18.375 18.7502 18.375C20.8213 18.375 22.5002 20.0539 22.5002 22.125Z" fill="#656565"/>
<path d="M45.2384 22.4008L45.1795 21.9725C44.8867 19.8438 42.9237 18.3554 40.795 18.6482L40.3667 18.7071M50.6701 19.2103L50.567 18.4608C50.0547 14.7355 46.6195 12.1308 42.8941 12.6432L42.1447 12.7462M55.8318 16.5514L55.6698 15.3736C54.8648 9.51957 49.4665 5.42656 43.6124 6.23162L42.4347 6.39359" stroke="#656565" stroke-width="3" stroke-linecap="round"/>
</svg>
