<?xml version="1.0" encoding="utf-8"?>
<!DOCTYPE svg PUBLIC "-//W3C//DTD SVG 20010904//EN" "http://www.w3.org/TR/2001/REC-SVG-20010904/DTD/svg10.dtd">
<svg version="1.0" xmlns="http://www.w3.org/2000/svg" width="123pt" height="92pt" viewBox="0 0 123 92" style="" preserveAspectRatio="xMidYMid meet">
<g fill="#A0A0A0FF" stroke="#A0A0A0FF">
<path d="M 43.000 21.000 C 41.900 22.100 41.000 23.617 41.000 24.372 C 41.000 25.198 39.420 25.997 37.032 26.379 C 34.601 26.768 32.663 27.760 32.032 28.941 C 31.410 30.102 31.000 39.823 31.000 53.371 L 31.000 75.873 27.750 76.187 C 25.667 76.387 24.500 77.039 24.500 78.000 C 24.500 79.270 27.356 79.542 43.115 79.772 C 60.198 80.021 61.876 80.206 63.520 82.022 C 65.775 84.514 67.515 84.531 69.232 82.079 C 70.006 80.974 72.048 80.018 74.039 79.829 C 77.277 79.521 77.480 79.293 77.191 76.290 L 76.883 73.080 85.680 72.790 C 93.127 72.544 94.529 72.231 94.812 70.750 C 95.086 69.315 94.413 69.000 91.073 69.000 L 87.000 69.000 87.000 46.000 C 87.000 24.333 86.884 22.884 85.000 21.000 C 83.140 19.140 81.667 19.000 64.000 19.000 C 46.333 19.000 44.860 19.140 43.000 21.000 M 73.500 53.000 L 73.500 75.500 70.130 75.822 C 67.655 76.059 66.062 75.501 64.130 73.719 C 62.684 72.385 60.766 71.037 59.868 70.723 C 58.481 70.239 58.394 69.565 59.289 66.211 C 60.182 62.868 60.042 61.755 58.371 58.885 C 54.958 53.021 47.340 51.933 42.636 56.636 C 39.751 59.522 39.077 62.358 40.225 66.788 C 41.683 72.413 47.777 74.949 54.941 72.910 C 55.734 72.684 56.556 73.301 56.770 74.283 C 57.129 75.925 56.260 76.044 45.830 75.783 L 34.500 75.500 34.229 54.025 C 34.081 42.213 34.183 31.966 34.456 31.253 C 34.845 30.240 39.166 30.016 54.227 30.228 L 73.500 30.500 73.500 53.000 M 83.783 44.000 C 83.939 55.275 83.818 65.513 83.514 66.750 C 83.095 68.457 82.242 69.000 79.981 69.000 L 77.000 69.000 76.985 49.750 C 76.976 39.163 76.639 30.005 76.235 29.400 C 74.428 26.693 70.620 26.000 57.566 26.000 C 45.127 26.000 42.765 25.568 44.688 23.646 C 45.066 23.268 53.953 23.080 64.438 23.229 L 83.500 23.500 83.783 44.000 M 54.255 58.750 C 57.583 62.472 56.456 68.577 52.235 69.692 C 46.995 71.076 43.000 68.547 43.000 63.845 C 43.000 58.130 50.617 54.682 54.255 58.750 "/></g>
<g fill="#A0A0A0FF" stroke="#A0A0A0FF">
<path d="M 40.000 42.500 C 40.000 43.846 41.747 44.021 52.750 43.780 C 69.478 43.413 69.303 41.596 52.503 41.220 C 41.723 40.979 40.000 41.155 40.000 42.500 "/></g>
<g fill="#A0A0A0FF" stroke="#A0A0A0FF">
<path d="M 40.704 33.630 C 40.317 34.017 40.000 34.933 40.000 35.667 C 40.000 36.680 42.179 37.000 49.073 37.000 C 57.175 37.000 58.111 36.813 57.812 35.250 C 57.533 33.786 56.165 33.453 49.443 33.213 C 45.023 33.055 41.091 33.242 40.704 33.630 "/></g>
<g fill="#A0A0A0FF" stroke="#A0A0A0FF">
<path d="M 9.571 33.571 C 7.729 35.414 7.629 36.438 9.035 39.066 C 10.933 42.612 17.000 40.941 17.000 36.871 C 17.000 34.810 14.404 32.000 12.500 32.000 C 11.754 32.000 10.436 32.707 9.571 33.571 M 14.000 36.500 C 14.000 37.325 13.325 38.000 12.500 38.000 C 11.675 38.000 11.000 37.325 11.000 36.500 C 11.000 35.675 11.675 35.000 12.500 35.000 C 13.325 35.000 14.000 35.675 14.000 36.500 "/></g>
<g fill="#A0A0A0FF" stroke="#A0A0A0FF">
<path d="M 97.667 24.667 C 96.210 26.123 97.045 30.954 98.928 31.961 C 102.726 33.994 106.484 30.408 104.914 26.250 C 104.305 24.638 103.252 24.000 101.199 24.000 C 99.623 24.000 98.033 24.300 97.667 24.667 M 102.554 27.087 C 103.584 28.755 101.267 30.667 99.887 29.287 C 98.733 28.133 99.455 26.000 101.000 26.000 C 101.485 26.000 102.184 26.489 102.554 27.087 "/></g>
<g fill="#A0A0A0FF" stroke="#A0A0A0FF">
<path d="M 10.478 77.036 C 9.261 79.004 11.565 80.140 16.114 79.814 C 19.206 79.593 20.500 79.058 20.500 78.000 C 20.500 76.137 11.564 75.278 10.478 77.036 "/></g>
<g fill="#A0A0A0FF" stroke="#A0A0A0FF">
<path d="M 40.000 49.500 C 40.000 50.822 41.071 51.044 46.250 50.798 C 49.688 50.634 52.500 50.050 52.500 49.500 C 52.500 48.950 49.688 48.366 46.250 48.202 C 41.071 47.956 40.000 48.178 40.000 49.500 "/></g>
<g fill="#A0A0A0FF" stroke="#A0A0A0FF">
<path d="M 24.000 15.500 C 24.000 16.325 23.325 17.000 22.500 17.000 C 21.675 17.000 21.000 17.450 21.000 18.000 C 21.000 18.550 21.675 19.000 22.500 19.000 C 23.325 19.000 24.000 19.675 24.000 20.500 C 24.000 21.325 24.675 22.000 25.500 22.000 C 26.325 22.000 27.000 21.325 27.000 20.500 C 27.000 19.675 27.675 19.000 28.500 19.000 C 29.325 19.000 30.000 18.550 30.000 18.000 C 30.000 17.450 29.325 17.000 28.500 17.000 C 27.675 17.000 27.000 16.325 27.000 15.500 C 27.000 14.675 26.325 14.000 25.500 14.000 C 24.675 14.000 24.000 14.675 24.000 15.500 "/></g>
<g fill="#A0A0A0FF" stroke="#A0A0A0FF">
<path d="M 110.767 55.429 C 109.241 56.544 109.230 56.802 110.653 58.225 C 112.076 59.647 112.390 59.646 114.068 58.210 C 115.812 56.717 115.818 56.561 114.181 55.414 C 112.819 54.461 112.086 54.464 110.767 55.429 "/></g>
<g fill="#A0A0A0FF" stroke="#A0A0A0FF">
<path d="M 16.709 60.794 C 15.394 62.267 15.381 62.678 16.610 63.805 C 17.785 64.883 18.304 64.839 19.588 63.555 C 20.949 62.194 20.962 61.819 19.687 60.544 C 18.412 59.269 18.041 59.300 16.709 60.794 "/></g>
</svg>
