<svg width="121" height="120" viewBox="0 0 121 120" fill="none" xmlns="http://www.w3.org/2000/svg">
    <rect x="0.666504" width="120" height="120" rx="22" fill="url(#paint0_linear_1_51)" />
    <path fill-rule="evenodd" clip-rule="evenodd"
        d="M42.1202 47.889C40.962 38.6233 48.1867 30.4392 57.5245 30.4392H62.2075C71.5552 30.4392 78.7876 38.632 77.6282 47.9074L77.4505 49.329C77.1067 52.0793 78.1066 54.8271 80.1376 56.7133L80.2583 56.8254C84.6948 60.9456 85.5558 67.6465 82.305 72.7544C80.1804 76.0927 76.6182 78.2163 72.7113 78.5251L72.1855 79.4267C69.4003 84.2013 65.0607 86.8142 60.5039 86.8142C55.9471 86.8142 51.6075 84.2013 48.8224 79.4267L48.3046 78.5391C43.6535 78.2496 39.4871 75.4794 37.4352 71.2492L37.151 70.6633C34.8227 65.8633 35.9119 60.105 39.8326 56.4871C41.7246 54.7411 42.6577 52.1894 42.3384 49.6348L42.1202 47.889ZM53.1799 78.5642C55.2681 81.4178 57.9708 82.6892 60.5039 82.6892C63.037 82.6892 65.7397 81.4178 67.8279 78.5642H53.1799Z"
        fill="#0F7668" fill-opacity="0.7" />
    <defs>
        <linearGradient id="paint0_linear_1_51" x1="60.6665" y1="0" x2="60.6665" y2="120"
            gradientUnits="userSpaceOnUse">
            <stop stop-color="#11998E" stop-opacity="0.65" />
            <stop offset="1" stop-color="#38EF7D" stop-opacity="0.58" />
        </linearGradient>
    </defs>
</svg>